<?xml version="1.0" standalone="no"?><!DOCTYPE svg PUBLIC "-//W3C//DTD SVG 1.1//EN" "http://www.w3.org/Graphics/SVG/1.1/DTD/svg11.dtd"><svg t="1521792360011" class="icon" style="" viewBox="0 0 1024 1024" version="1.1" xmlns="http://www.w3.org/2000/svg" p-id="9170" xmlns:xlink="http://www.w3.org/1999/xlink" width="200" height="200"><defs><style type="text/css"></style></defs><path d="M807.497143 512q0-15.433143-10.313143-25.746286l-258.852571-258.852571q-10.313143-10.313143-25.746286-10.313143t-25.746286 10.313143l-52.004571 52.004571q-10.313143 10.313143-10.313143 25.746286t10.313143 25.746286l108.032 108.032-286.866286 0q-14.848 0-25.746286 10.825143t-10.825143 25.746286l0 73.142857q0 14.848 10.825143 25.746286t25.746286 10.825143l286.866286 0-108.032 108.032q-10.825143 10.825143-10.825143 25.746286t10.825143 25.746286l52.004571 52.004571q10.313143 10.313143 25.746286 10.313143t25.746286-10.313143l258.852571-258.852571q10.313143-10.313143 10.313143-25.746286zM950.930286 512q0 119.442286-58.88 220.306286t-159.744 159.744-220.306286 58.88-220.306286-58.88-159.744-159.744-58.88-220.306286 58.88-220.306286 159.744-159.744 220.306286-58.88 220.306286 58.88 159.744 159.744 58.88 220.306286z" p-id="9171"></path></svg>