<?xml version="1.0" standalone="no"?><!DOCTYPE svg PUBLIC "-//W3C//DTD SVG 1.1//EN" "http://www.w3.org/Graphics/SVG/1.1/DTD/svg11.dtd"><svg class="icon" width="200px" height="200.00px" viewBox="0 0 1024 1024" version="1.1" xmlns="http://www.w3.org/2000/svg"><path fill="#333333" d="M806.857143 419.428571q0-16-10.285714-26.285714l-52-51.428571q-10.857143-10.857143-25.714286-10.857143t-25.714286 10.857143l-233.142857 232.571429-129.142857-129.142857q-10.857143-10.857143-25.714286-10.857143t-25.714286 10.857143l-52 51.428571q-10.285714 10.285714-10.285714 26.285714 0 15.428571 10.285714 25.714286l206.857143 206.857143q10.857143 10.857143 25.714286 10.857143 15.428571 0 26.285714-10.857143l310.285714-310.285714q10.285714-10.285714 10.285714-25.714286zm144 92.571429q0 119.428571-58.857143 220.285714t-159.714286 159.714286-220.285714 58.857143-220.285714-58.857143-159.714286-159.714286-58.857143-220.285714 58.857143-220.285714 159.714286-159.714286 220.285714-58.857143 220.285714 58.857143 159.714286 159.714286 58.857143 220.285714z" /></svg>