<?xml version="1.0" standalone="no"?><!DOCTYPE svg PUBLIC "-//W3C//DTD SVG 1.1//EN" "http://www.w3.org/Graphics/SVG/1.1/DTD/svg11.dtd"><svg class="icon" width="200px" height="200.00px" viewBox="0 0 1024 1024" version="1.1" xmlns="http://www.w3.org/2000/svg"><path fill="#333333" d="M511.333 63.946c-247.423 0-448 200.576-448 448 0 247.422 200.577 448 448 448s448-200.578 448-448c0-247.424-200.577-448-448-448z m252.596 622.38c21.606 21.593 21.606 56.622 0 78.215-10.79 10.804-24.955 16.205-39.109 16.205-14.152 0-28.317-5.401-39.108-16.205L519.479 598.307 353.245 764.541c-10.79 10.804-24.955 16.205-39.108 16.205-14.153 0-28.318-5.401-39.109-16.205-21.606-21.593-21.606-56.622 0-78.215l166.235-166.234-166.234-166.234c-21.606-21.593-21.606-56.624 0-78.217 21.58-21.605 56.636-21.605 78.216 0l166.234 166.236 166.234-166.236c21.58-21.605 56.636-21.605 78.216 0 21.606 21.593 21.606 56.624 0 78.217L597.694 520.092l166.235 166.234z" /></svg>