<?xml version="1.0" standalone="no"?><!DOCTYPE svg PUBLIC "-//W3C//DTD SVG 1.1//EN" "http://www.w3.org/Graphics/SVG/1.1/DTD/svg11.dtd"><svg t="1522203715768" class="icon" style="" viewBox="0 0 1024 1024" version="1.1" xmlns="http://www.w3.org/2000/svg" p-id="4796" xmlns:xlink="http://www.w3.org/1999/xlink" width="200" height="200"><defs><style type="text/css"></style></defs><path d="M728.387305 512 512 137.205918 295.612695 512 79.225389 886.794082l432.774611 0 432.774611 0L728.387305 512zM543.777751 816.562531c-8.993838 7.992021-19.48682 11.992125-31.478945 11.992125-12.192693 0-22.836101-3.947915-31.928177-11.841699-9.097192-7.892761-13.640672-18.934235-13.640672-33.127492 0-12.389168 4.347005-22.934339 13.041014-31.628348s19.336394-13.041014 31.928177-13.041014 23.333428 4.347005 32.228005 13.041014c8.890484 8.694009 13.340843 19.23918 13.340843 31.628348C557.26902 797.577131 552.772612 808.570509 543.777751 816.562531zM555.170219 477.243405l-12.891611 147.800207c-1.399883 17.58961-4.39817 31.080879-8.993838 40.472783-4.599761 9.397021-12.192693 14.090926-22.784936 14.090926-10.79281 0-18.287505-4.54348-22.485107-13.640672-4.197602-9.092076-7.194866-22.934339-8.993838-41.521672l-9.593496-143.602605c-1.798972-27.979238-2.698458-48.065715-2.698458-60.259432 0-16.58677 4.347005-29.529547 13.041014-38.823214s20.133549-13.9405 34.326806-13.9405c17.187451 0 28.677133 5.948479 34.476209 17.838274 5.794983 11.893888 8.694009 29.033243 8.694009 51.414997C557.26902 450.26189 556.567032 463.653899 555.170219 477.243405z" p-id="4797"></path></svg>